<svg xmlns="http://www.w3.org/2000/svg" data-name="Layer 40" viewBox="0 0 32 32" id="online-hotel-booking"><rect width="22" height="20" x="3" y="5" fill="#66c8ff" rx="2" ry="2"></rect><path fill="#f66" d="M5,5H23a2,2,0,0,1,2,2v4a0,0,0,0,1,0,0H3a0,0,0,0,1,0,0V7A2,2,0,0,1,5,5Z"></path><path fill="#fff" d="M25,22v1a2.006,2.006,0,0,1-2,2H5a2.006,2.006,0,0,1-2-2V7A2.006,2.006,0,0,1,5,5H6V20a2.006,2.006,0,0,0,2,2H25Z"></path><polygon fill="#6d6e71" points="20 29 20 17 29 25 20 29"></polygon><path fill="#fff" d="M29,25l-9,4V17l2,1.78v5.681a1,1,0,0,0,1.406.914L27.42,23.59Z"></path><path fill="#231f20" d="M26,11a1,1,0,0,0-1-1H3a1,1,0,0,0,0,2H25A1,1,0,0,0,26,11Z"></path><path fill="#231f20" d="M23,4H5A3,3,0,0,0,2,7V23a3,3,0,0,0,3,3H20a1,1,0,0,0,0-2H5a1,1,0,0,1-1-1V7A1,1,0,0,1,5,6H23a1,1,0,0,1,1,1V21a1,1,0,0,0,2,0V7A3,3,0,0,0,23,4Z"></path><path fill="#231f20" d="M29.664 24.253l-9-8A1 1 0 0019 17V29a1 1 0 001.406.914l9-4A1 1 0 0029.664 24.253zM21 27.461V19.227l6.176 5.49zM8 8A1 1 0 009 7V3A1 1 0 007 3V7A1 1 0 008 8zM20 8a1 1 0 001-1V3a1 1 0 00-2 0V7A1 1 0 0020 8zM9 15H8a1 1 0 000 2H9A1 1 0 009 15zM15 15H14a1 1 0 000 2h1A1 1 0 0015 15zM9 19H8a1 1 0 000 2H9A1 1 0 009 19zM15 19H14a1 1 0 000 2h1A1 1 0 0015 19z"></path></svg>